<svg width="423" height="24" viewBox="0 0 423 24" fill="none" xmlns="http://www.w3.org/2000/svg">
<rect y="5" width="16" height="15" rx="2" fill="#2196F3"/>
<path d="M3.95703 12.7517L3.88825 12.686L3.81923 12.7514L2.93123 13.5926L2.85486 13.6649L2.93097 13.7375L6.42671 17.0724L6.49574 17.1382L6.56476 17.0724L14.069 9.91352L14.1449 9.84116L14.069 9.76881L13.1873 8.92764L13.1183 8.86183L13.0493 8.92761L6.49577 15.1735L3.95703 12.7517Z" fill="white" stroke="white" stroke-width="0.2"/>
<path d="M31.4766 13.8418C31.3535 14.8945 30.9639 15.708 30.3076 16.2822C29.6559 16.8519 28.7878 17.1367 27.7031 17.1367C26.5273 17.1367 25.584 16.7152 24.873 15.8721C24.1667 15.029 23.8135 13.901 23.8135 12.4883V11.5312C23.8135 10.6061 23.9775 9.79264 24.3057 9.09082C24.6383 8.389 25.1077 7.85124 25.7139 7.47754C26.32 7.09928 27.0218 6.91016 27.8193 6.91016C28.8766 6.91016 29.7243 7.20638 30.3623 7.79883C31.0003 8.38672 31.3717 9.20247 31.4766 10.2461H30.1572C30.0433 9.45312 29.7949 8.87891 29.4121 8.52344C29.0339 8.16797 28.5029 7.99023 27.8193 7.99023C26.9808 7.99023 26.3223 8.30013 25.8438 8.91992C25.3698 9.53971 25.1328 10.4215 25.1328 11.5654V12.5293C25.1328 13.6094 25.3584 14.4684 25.8096 15.1064C26.2607 15.7445 26.8919 16.0635 27.7031 16.0635C28.4323 16.0635 28.9906 15.8994 29.3779 15.5713C29.7699 15.2386 30.0296 14.6621 30.1572 13.8418H31.4766ZM33.1612 13.2334C33.1612 12.5088 33.3025 11.8571 33.585 11.2783C33.8721 10.6995 34.2686 10.2529 34.7745 9.93848C35.2849 9.62402 35.866 9.4668 36.5177 9.4668C37.5248 9.4668 38.3383 9.81543 38.9581 10.5127C39.5824 11.21 39.8946 12.1374 39.8946 13.2949V13.3838C39.8946 14.1038 39.7556 14.751 39.4776 15.3252C39.2042 15.8949 38.81 16.3392 38.295 16.6582C37.7846 16.9772 37.1967 17.1367 36.5313 17.1367C35.5287 17.1367 34.7152 16.7881 34.0909 16.0908C33.4711 15.3936 33.1612 14.4707 33.1612 13.3223V13.2334ZM34.4327 13.3838C34.4327 14.2041 34.6218 14.8626 35.0001 15.3594C35.3829 15.8561 35.8933 16.1045 36.5313 16.1045C37.1739 16.1045 37.6843 15.8538 38.0626 15.3525C38.4408 14.8467 38.63 14.1403 38.63 13.2334C38.63 12.4222 38.4363 11.766 38.0489 11.2646C37.6661 10.7588 37.1557 10.5059 36.5177 10.5059C35.8933 10.5059 35.3897 10.7542 35.0069 11.251C34.6241 11.7477 34.4327 12.4587 34.4327 13.3838ZM46.6789 10.6494H43.2677V17H41.9963V9.60352H46.6789V10.6494ZM53.9895 9.60352V17H52.718V10.6494H50.2024L50.052 13.418C49.97 14.6895 49.7558 15.5986 49.4094 16.1455C49.0676 16.6924 48.523 16.9772 47.7756 17H47.2698V15.8857L47.6321 15.8584C48.0422 15.8128 48.3362 15.5758 48.5139 15.1475C48.6916 14.7191 48.8056 13.9261 48.8557 12.7686L48.9924 9.60352H53.9895ZM61.0062 17C60.9333 16.8542 60.874 16.5944 60.8284 16.2207C60.2405 16.8314 59.5387 17.1367 58.723 17.1367C57.9938 17.1367 57.3945 16.9316 56.9251 16.5215C56.4603 16.1068 56.2279 15.5827 56.2279 14.9492C56.2279 14.179 56.5195 13.582 57.1029 13.1582C57.6907 12.7298 58.5156 12.5156 59.5775 12.5156H60.8079V11.9346C60.8079 11.4925 60.6758 11.1416 60.4114 10.8818C60.1471 10.6175 59.7575 10.4854 59.2425 10.4854C58.7913 10.4854 58.4131 10.5993 58.1077 10.8271C57.8024 11.055 57.6497 11.3307 57.6497 11.6543H56.3782C56.3782 11.2852 56.5081 10.9297 56.7679 10.5879C57.0322 10.2415 57.3877 9.9681 57.8343 9.76758C58.2855 9.56706 58.7799 9.4668 59.3177 9.4668C60.1699 9.4668 60.8376 9.68099 61.3206 10.1094C61.8037 10.5332 62.0543 11.1188 62.0726 11.8662V15.2705C62.0726 15.9495 62.1592 16.4896 62.3323 16.8906V17H61.0062ZM58.9075 16.0361C59.304 16.0361 59.68 15.9336 60.0355 15.7285C60.3909 15.5234 60.6484 15.2568 60.8079 14.9287V13.4111H59.8167C58.2672 13.4111 57.4925 13.8646 57.4925 14.7715C57.4925 15.168 57.6247 15.4779 57.889 15.7012C58.1533 15.9245 58.4928 16.0361 58.9075 16.0361ZM65.8559 9.60352V15.9678H68.5629V9.60352H69.8275V15.9678H72.5277V9.60352H73.7992V17H64.5844V9.60352H65.8559ZM80.7817 17C80.7088 16.8542 80.6496 16.5944 80.604 16.2207C80.0161 16.8314 79.3143 17.1367 78.4985 17.1367C77.7693 17.1367 77.1701 16.9316 76.7007 16.5215C76.2358 16.1068 76.0034 15.5827 76.0034 14.9492C76.0034 14.179 76.2951 13.582 76.8784 13.1582C77.4663 12.7298 78.2912 12.5156 79.353 12.5156H80.5835V11.9346C80.5835 11.4925 80.4513 11.1416 80.187 10.8818C79.9227 10.6175 79.533 10.4854 79.018 10.4854C78.5669 10.4854 78.1886 10.5993 77.8833 10.8271C77.5779 11.055 77.4253 11.3307 77.4253 11.6543H76.1538C76.1538 11.2852 76.2837 10.9297 76.5434 10.5879C76.8078 10.2415 77.1632 9.9681 77.6098 9.76758C78.061 9.56706 78.5555 9.4668 79.0932 9.4668C79.9455 9.4668 80.6131 9.68099 81.0962 10.1094C81.5792 10.5332 81.8299 11.1188 81.8481 11.8662V15.2705C81.8481 15.9495 81.9347 16.4896 82.1079 16.8906V17H80.7817ZM78.6831 16.0361C79.0796 16.0361 79.4555 15.9336 79.811 15.7285C80.1665 15.5234 80.424 15.2568 80.5835 14.9287V13.4111H79.5923C78.0428 13.4111 77.268 13.8646 77.268 14.7715C77.268 15.168 77.4002 15.4779 77.6645 15.7012C77.9289 15.9245 78.2684 16.0361 78.6831 16.0361ZM85.6314 12.7412H87.4087C87.5045 11.7568 87.8531 10.9661 88.4546 10.3691C89.0608 9.76758 89.8241 9.4668 90.7447 9.4668C91.7108 9.4668 92.5015 9.79264 93.1168 10.4443C93.732 11.096 94.0647 11.9437 94.1148 12.9873L94.1216 13.3838C94.1216 14.1038 93.9804 14.7533 93.6978 15.332C93.4153 15.9108 93.0188 16.3574 92.5084 16.6719C91.9979 16.9818 91.4146 17.1367 90.7584 17.1367C89.8059 17.1367 89.0266 16.8268 88.4205 16.207C87.8143 15.5827 87.4748 14.7738 87.4019 13.7803H85.6314V17H84.3668V9.60352H85.6314V12.7412ZM88.6529 13.3838C88.6529 14.2041 88.842 14.8626 89.2203 15.3594C89.6031 15.8561 90.1158 16.1045 90.7584 16.1045C91.4009 16.1045 91.9091 15.8516 92.2828 15.3457C92.661 14.8398 92.8502 14.1357 92.8502 13.2334C92.8502 12.4268 92.6587 11.7705 92.2759 11.2646C91.8931 10.7588 91.3827 10.5059 90.7447 10.5059C90.1158 10.5059 89.6099 10.7542 89.2271 11.251C88.8443 11.7477 88.6529 12.4587 88.6529 13.3838ZM99.067 16.1045C99.5182 16.1045 99.9124 15.9678 100.25 15.6943C100.587 15.4209 100.774 15.0791 100.81 14.6689H102.006C101.984 15.0928 101.838 15.4961 101.569 15.8789C101.3 16.2617 100.94 16.5671 100.489 16.7949C100.042 17.0228 99.5683 17.1367 99.067 17.1367C98.0599 17.1367 97.2578 16.8018 96.6608 16.1318C96.0683 15.4574 95.7721 14.5368 95.7721 13.3701V13.1582C95.7721 12.4382 95.9043 11.7979 96.1686 11.2373C96.4329 10.6768 96.8112 10.2415 97.3034 9.93164C97.8001 9.62174 98.3857 9.4668 99.0602 9.4668C99.8896 9.4668 100.578 9.71517 101.125 10.2119C101.676 10.7087 101.97 11.3535 102.006 12.1465H100.81C100.774 11.668 100.591 11.276 100.263 10.9707C99.9398 10.6608 99.5387 10.5059 99.0602 10.5059C98.4176 10.5059 97.9186 10.7383 97.5631 11.2031C97.2122 11.6634 97.0368 12.3311 97.0368 13.2061V13.4453C97.0368 14.2975 97.2122 14.9538 97.5631 15.4141C97.914 15.8743 98.4153 16.1045 99.067 16.1045ZM105.229 12.1533H107.15C107.989 12.1624 108.652 12.3812 109.139 12.8096C109.627 13.238 109.871 13.819 109.871 14.5527C109.871 15.291 109.62 15.8835 109.119 16.3301C108.618 16.7767 107.943 17 107.095 17H103.965V9.60352H105.229V12.1533ZM105.229 13.1855V15.9678H107.109C107.583 15.9678 107.95 15.847 108.21 15.6055C108.469 15.3594 108.599 15.0244 108.599 14.6006C108.599 14.1904 108.472 13.8555 108.217 13.5957C107.966 13.3314 107.613 13.1947 107.157 13.1855H105.229ZM118.729 16.1045C119.181 16.1045 119.575 15.9678 119.912 15.6943C120.249 15.4209 120.436 15.0791 120.473 14.6689H121.669C121.646 15.0928 121.5 15.4961 121.231 15.8789C120.962 16.2617 120.602 16.5671 120.151 16.7949C119.705 17.0228 119.231 17.1367 118.729 17.1367C117.722 17.1367 116.92 16.8018 116.323 16.1318C115.731 15.4574 115.434 14.5368 115.434 13.3701V13.1582C115.434 12.4382 115.567 11.7979 115.831 11.2373C116.095 10.6768 116.474 10.2415 116.966 9.93164C117.462 9.62174 118.048 9.4668 118.723 9.4668C119.552 9.4668 120.24 9.71517 120.787 10.2119C121.338 10.7087 121.632 11.3535 121.669 12.1465H120.473C120.436 11.668 120.254 11.276 119.926 10.9707C119.602 10.6608 119.201 10.5059 118.723 10.5059C118.08 10.5059 117.581 10.7383 117.225 11.2031C116.875 11.6634 116.699 12.3311 116.699 13.2061V13.4453C116.699 14.2975 116.875 14.9538 117.225 15.4141C117.576 15.8743 118.078 16.1045 118.729 16.1045ZM133.651 13.3838C133.651 14.5094 133.394 15.4163 132.879 16.1045C132.364 16.7926 131.667 17.1367 130.787 17.1367C129.889 17.1367 129.183 16.8519 128.668 16.2822V19.8438H127.403V9.60352H128.559L128.62 10.4238C129.135 9.78581 129.851 9.4668 130.767 9.4668C131.655 9.4668 132.357 9.80176 132.872 10.4717C133.392 11.1416 133.651 12.0736 133.651 13.2676V13.3838ZM132.387 13.2402C132.387 12.4062 132.209 11.7477 131.854 11.2646C131.498 10.7816 131.01 10.54 130.391 10.54C129.625 10.54 129.051 10.8796 128.668 11.5586V15.0928C129.046 15.7673 129.625 16.1045 130.404 16.1045C131.01 16.1045 131.491 15.8652 131.847 15.3867C132.207 14.9036 132.387 14.1882 132.387 13.2402ZM140.251 17C140.178 16.8542 140.119 16.5944 140.073 16.2207C139.485 16.8314 138.784 17.1367 137.968 17.1367C137.239 17.1367 136.639 16.9316 136.17 16.5215C135.705 16.1068 135.473 15.5827 135.473 14.9492C135.473 14.179 135.764 13.582 136.348 13.1582C136.936 12.7298 137.761 12.5156 138.822 12.5156H140.053V11.9346C140.053 11.4925 139.921 11.1416 139.656 10.8818C139.392 10.6175 139.002 10.4854 138.487 10.4854C138.036 10.4854 137.658 10.5993 137.353 10.8271C137.047 11.055 136.895 11.3307 136.895 11.6543H135.623C135.623 11.2852 135.753 10.9297 136.013 10.5879C136.277 10.2415 136.633 9.9681 137.079 9.76758C137.53 9.56706 138.025 9.4668 138.563 9.4668C139.415 9.4668 140.082 9.68099 140.566 10.1094C141.049 10.5332 141.299 11.1188 141.317 11.8662V15.2705C141.317 15.9495 141.404 16.4896 141.577 16.8906V17H140.251ZM138.152 16.0361C138.549 16.0361 138.925 15.9336 139.28 15.7285C139.636 15.5234 139.893 15.2568 140.053 14.9287V13.4111H139.062C137.512 13.4111 136.737 13.8646 136.737 14.7715C136.737 15.168 136.87 15.4779 137.134 15.7012C137.398 15.9245 137.738 16.0361 138.152 16.0361ZM146.687 16.1045C147.138 16.1045 147.532 15.9678 147.869 15.6943C148.207 15.4209 148.393 15.0791 148.43 14.6689H149.626C149.603 15.0928 149.458 15.4961 149.189 15.8789C148.92 16.2617 148.56 16.5671 148.109 16.7949C147.662 17.0228 147.188 17.1367 146.687 17.1367C145.68 17.1367 144.877 16.8018 144.28 16.1318C143.688 15.4574 143.392 14.5368 143.392 13.3701V13.1582C143.392 12.4382 143.524 11.7979 143.788 11.2373C144.053 10.6768 144.431 10.2415 144.923 9.93164C145.42 9.62174 146.005 9.4668 146.68 9.4668C147.509 9.4668 148.197 9.71517 148.744 10.2119C149.296 10.7087 149.59 11.3535 149.626 12.1465H148.43C148.393 11.668 148.211 11.276 147.883 10.9707C147.559 10.6608 147.158 10.5059 146.68 10.5059C146.037 10.5059 145.538 10.7383 145.183 11.2031C144.832 11.6634 144.656 12.3311 144.656 13.2061V13.4453C144.656 14.2975 144.832 14.9538 145.183 15.4141C145.534 15.8743 146.035 16.1045 146.687 16.1045ZM154.435 16.1045C154.886 16.1045 155.28 15.9678 155.617 15.6943C155.955 15.4209 156.142 15.0791 156.178 14.6689H157.374C157.352 15.0928 157.206 15.4961 156.937 15.8789C156.668 16.2617 156.308 16.5671 155.857 16.7949C155.41 17.0228 154.936 17.1367 154.435 17.1367C153.428 17.1367 152.626 16.8018 152.029 16.1318C151.436 15.4574 151.14 14.5368 151.14 13.3701V13.1582C151.14 12.4382 151.272 11.7979 151.536 11.2373C151.801 10.6768 152.179 10.2415 152.671 9.93164C153.168 9.62174 153.754 9.4668 154.428 9.4668C155.257 9.4668 155.946 9.71517 156.492 10.2119C157.044 10.7087 157.338 11.3535 157.374 12.1465H156.178C156.142 11.668 155.959 11.276 155.631 10.9707C155.308 10.6608 154.907 10.5059 154.428 10.5059C153.785 10.5059 153.286 10.7383 152.931 11.2031C152.58 11.6634 152.405 12.3311 152.405 13.2061V13.4453C152.405 14.2975 152.58 14.9538 152.931 15.4141C153.282 15.8743 153.783 16.1045 154.435 16.1045ZM160.597 12.1533H162.518C163.356 12.1624 164.02 12.3812 164.507 12.8096C164.995 13.238 165.239 13.819 165.239 14.5527C165.239 15.291 164.988 15.8835 164.487 16.3301C163.985 16.7767 163.311 17 162.463 17H159.332V9.60352H160.597V12.1533ZM167.877 17H166.606V9.60352H167.877V17ZM160.597 13.1855V15.9678H162.477C162.951 15.9678 163.318 15.847 163.577 15.6055C163.837 15.3594 163.967 15.0244 163.967 14.6006C163.967 14.1904 163.84 13.8555 163.584 13.5957C163.334 13.3314 162.98 13.1947 162.525 13.1855H160.597ZM176.569 9.60352V17H175.297V10.6494H172.782L172.631 13.418C172.549 14.6895 172.335 15.5986 171.989 16.1455C171.647 16.6924 171.102 16.9772 170.355 17H169.849V15.8857L170.211 15.8584C170.622 15.8128 170.915 15.5758 171.093 15.1475C171.271 14.7191 171.385 13.9261 171.435 12.7686L171.572 9.60352H176.569ZM181.323 13.8486H180.4V17H179.128V9.60352H180.4V12.7344H181.227L183.715 9.60352H185.247L182.321 13.1582L185.493 17H183.886L181.323 13.8486ZM186.514 13.2334C186.514 12.5088 186.656 11.8571 186.938 11.2783C187.225 10.6995 187.622 10.2529 188.128 9.93848C188.638 9.62402 189.219 9.4668 189.871 9.4668C190.878 9.4668 191.691 9.81543 192.311 10.5127C192.935 11.21 193.248 12.1374 193.248 13.2949V13.3838C193.248 14.1038 193.109 14.751 192.831 15.3252C192.557 15.8949 192.163 16.3392 191.648 16.6582C191.138 16.9772 190.55 17.1367 189.884 17.1367C188.882 17.1367 188.068 16.7881 187.444 16.0908C186.824 15.3936 186.514 14.4707 186.514 13.3223V13.2334ZM187.786 13.3838C187.786 14.2041 187.975 14.8626 188.353 15.3594C188.736 15.8561 189.246 16.1045 189.884 16.1045C190.527 16.1045 191.037 15.8538 191.416 15.3525C191.794 14.8467 191.983 14.1403 191.983 13.2334C191.983 12.4222 191.789 11.766 191.402 11.2646C191.019 10.7588 190.509 10.5059 189.871 10.5059C189.246 10.5059 188.743 10.7542 188.36 11.251C187.977 11.7477 187.786 12.4587 187.786 13.3838ZM200.039 9.60352H201.303V17H200.039V11.6064L196.628 17H195.363V9.60352H196.628V15.0039L200.039 9.60352ZM200.381 6.91016C200.381 7.46159 200.191 7.90592 199.813 8.24316C199.439 8.57585 198.947 8.74219 198.337 8.74219C197.726 8.74219 197.231 8.57357 196.853 8.23633C196.475 7.89909 196.286 7.45703 196.286 6.91016H197.318C197.318 7.22917 197.405 7.47982 197.578 7.66211C197.751 7.83984 198.004 7.92871 198.337 7.92871C198.656 7.92871 198.904 7.83984 199.082 7.66211C199.264 7.48438 199.355 7.23372 199.355 6.91016H200.381ZM212.431 9.60352H213.696V17H212.431V11.6064L209.02 17H207.756V9.60352H209.02V15.0039L212.431 9.60352ZM226.089 17H224.824V10.6494H221.42V17H220.148V9.60352H226.089V17ZM234.787 13.3838C234.787 14.5094 234.53 15.4163 234.015 16.1045C233.5 16.7926 232.802 17.1367 231.923 17.1367C231.025 17.1367 230.319 16.8519 229.804 16.2822V19.8438H228.539V9.60352H229.694L229.756 10.4238C230.271 9.78581 230.986 9.4668 231.902 9.4668C232.791 9.4668 233.493 9.80176 234.008 10.4717C234.527 11.1416 234.787 12.0736 234.787 13.2676V13.3838ZM233.523 13.2402C233.523 12.4062 233.345 11.7477 232.989 11.2646C232.634 10.7816 232.146 10.54 231.526 10.54C230.761 10.54 230.187 10.8796 229.804 11.5586V15.0928C230.182 15.7673 230.761 16.1045 231.54 16.1045C232.146 16.1045 232.627 15.8652 232.982 15.3867C233.343 14.9036 233.523 14.1882 233.523 13.2402ZM241.606 9.60352H242.87V17H241.606V11.6064L238.194 17H236.93V9.60352H238.194V15.0039L241.606 9.60352ZM251.364 17H250.099V13.8418H246.701V17H245.43V9.60352H246.701V12.8096H250.099V9.60352H251.364V17ZM258.606 9.60352H259.87V17H258.606V11.6064L255.195 17H253.93V9.60352H255.195V15.0039L258.606 9.60352ZM266.579 15.3252L269.095 9.60352H270.674V17H269.41V11.6201L267.017 17H266.142L263.702 11.5039V17H262.437V9.60352H264.078L266.579 15.3252ZM277.698 17C277.625 16.8542 277.566 16.5944 277.52 16.2207C276.932 16.8314 276.23 17.1367 275.415 17.1367C274.685 17.1367 274.086 16.9316 273.617 16.5215C273.152 16.1068 272.919 15.5827 272.919 14.9492C272.919 14.179 273.211 13.582 273.794 13.1582C274.382 12.7298 275.207 12.5156 276.269 12.5156H277.499V11.9346C277.499 11.4925 277.367 11.1416 277.103 10.8818C276.839 10.6175 276.449 10.4854 275.934 10.4854C275.483 10.4854 275.105 10.5993 274.799 10.8271C274.494 11.055 274.341 11.3307 274.341 11.6543H273.07C273.07 11.2852 273.2 10.9297 273.459 10.5879C273.724 10.2415 274.079 9.9681 274.526 9.76758C274.977 9.56706 275.472 9.4668 276.009 9.4668C276.861 9.4668 277.529 9.68099 278.012 10.1094C278.495 10.5332 278.746 11.1188 278.764 11.8662V15.2705C278.764 15.9495 278.851 16.4896 279.024 16.8906V17H277.698ZM275.599 16.0361C275.996 16.0361 276.372 15.9336 276.727 15.7285C277.083 15.5234 277.34 15.2568 277.499 14.9287V13.4111H276.508C274.959 13.4111 274.184 13.8646 274.184 14.7715C274.184 15.168 274.316 15.4779 274.581 15.7012C274.845 15.9245 275.184 16.0361 275.599 16.0361ZM282.547 12.7412H284.325C284.42 11.7568 284.769 10.9661 285.371 10.3691C285.977 9.76758 286.74 9.4668 287.661 9.4668C288.627 9.4668 289.418 9.79264 290.033 10.4443C290.648 11.096 290.981 11.9437 291.031 12.9873L291.038 13.3838C291.038 14.1038 290.896 14.7533 290.614 15.332C290.331 15.9108 289.935 16.3574 289.424 16.6719C288.914 16.9818 288.331 17.1367 287.674 17.1367C286.722 17.1367 285.943 16.8268 285.336 16.207C284.73 15.5827 284.391 14.7738 284.318 13.7803H282.547V17H281.283V9.60352H282.547V12.7412ZM285.569 13.3838C285.569 14.2041 285.758 14.8626 286.136 15.3594C286.519 15.8561 287.032 16.1045 287.674 16.1045C288.317 16.1045 288.825 15.8516 289.199 15.3457C289.577 14.8398 289.766 14.1357 289.766 13.2334C289.766 12.4268 289.575 11.7705 289.192 11.2646C288.809 10.7588 288.299 10.5059 287.661 10.5059C287.032 10.5059 286.526 10.7542 286.143 11.251C285.76 11.7477 285.569 12.4587 285.569 13.3838Z" fill="#757575"/>
<path d="M300.525 12.8232L302.815 7.04688H304.34L300.819 15.3389C300.582 15.8675 300.361 16.2435 300.156 16.4668C299.951 16.6855 299.709 16.8542 299.431 16.9727C299.158 17.0866 298.814 17.1436 298.399 17.1436C298.039 17.1436 297.809 17.123 297.709 17.082L297.75 16.043L298.372 16.0703C298.85 16.0703 299.206 15.8402 299.438 15.3799L299.609 15.0244L299.869 14.416L296.478 7.04688H297.948L300.525 12.8232ZM308.636 16.1045C309.087 16.1045 309.481 15.9678 309.818 15.6943C310.155 15.4209 310.342 15.0791 310.379 14.6689H311.575C311.552 15.0928 311.406 15.4961 311.138 15.8789C310.869 16.2617 310.509 16.5671 310.057 16.7949C309.611 17.0228 309.137 17.1367 308.636 17.1367C307.628 17.1367 306.826 16.8018 306.229 16.1318C305.637 15.4574 305.341 14.5368 305.341 13.3701V13.1582C305.341 12.4382 305.473 11.7979 305.737 11.2373C306.001 10.6768 306.38 10.2415 306.872 9.93164C307.369 9.62174 307.954 9.4668 308.629 9.4668C309.458 9.4668 310.146 9.71517 310.693 10.2119C311.245 10.7087 311.539 11.3535 311.575 12.1465H310.379C310.342 11.668 310.16 11.276 309.832 10.9707C309.508 10.6608 309.107 10.5059 308.629 10.5059C307.986 10.5059 307.487 10.7383 307.132 11.2031C306.781 11.6634 306.605 12.3311 306.605 13.2061V13.4453C306.605 14.2975 306.781 14.9538 307.132 15.4141C307.483 15.8743 307.984 16.1045 308.636 16.1045ZM319.48 9.60352V17H318.209V10.6494H315.693L315.543 13.418C315.461 14.6895 315.247 15.5986 314.9 16.1455C314.558 16.6924 314.014 16.9772 313.266 17H312.761V15.8857L313.123 15.8584C313.533 15.8128 313.827 15.5758 314.005 15.1475C314.182 14.7191 314.296 13.9261 314.347 12.7686L314.483 9.60352H319.48ZM321.596 13.2334C321.596 12.5088 321.737 11.8571 322.02 11.2783C322.307 10.6995 322.703 10.2529 323.209 9.93848C323.719 9.62402 324.3 9.4668 324.952 9.4668C325.959 9.4668 326.773 9.81543 327.393 10.5127C328.017 11.21 328.329 12.1374 328.329 13.2949V13.3838C328.329 14.1038 328.19 14.751 327.912 15.3252C327.639 15.8949 327.244 16.3392 326.729 16.6582C326.219 16.9772 325.631 17.1367 324.966 17.1367C323.963 17.1367 323.15 16.7881 322.525 16.0908C321.906 15.3936 321.596 14.4707 321.596 13.3223V13.2334ZM322.867 13.3838C322.867 14.2041 323.056 14.8626 323.435 15.3594C323.817 15.8561 324.328 16.1045 324.966 16.1045C325.608 16.1045 326.119 15.8538 326.497 15.3525C326.875 14.8467 327.064 14.1403 327.064 13.2334C327.064 12.4222 326.871 11.766 326.483 11.2646C326.101 10.7588 325.59 10.5059 324.952 10.5059C324.328 10.5059 323.824 10.7542 323.441 11.251C323.059 11.7477 322.867 12.4587 322.867 13.3838ZM330.451 17V9.60352H333.336C334.32 9.60352 335.075 9.77669 335.599 10.123C336.127 10.4648 336.392 10.9684 336.392 11.6338C336.392 11.9756 336.289 12.2855 336.084 12.5635C335.879 12.8369 335.576 13.0465 335.175 13.1924C335.621 13.2972 335.979 13.5023 336.248 13.8076C336.522 14.113 336.658 14.4775 336.658 14.9014C336.658 15.5804 336.408 16.0999 335.906 16.46C335.41 16.82 334.705 17 333.794 17H330.451ZM331.716 13.7529V15.9814H333.808C334.336 15.9814 334.73 15.8835 334.99 15.6875C335.255 15.4915 335.387 15.2158 335.387 14.8604C335.387 14.1221 334.844 13.7529 333.76 13.7529H331.716ZM331.716 12.7412H333.35C334.535 12.7412 335.127 12.3949 335.127 11.7021C335.127 11.0094 334.566 10.6517 333.445 10.6289H331.716V12.7412ZM343.538 9.60352H344.803V17H343.538V11.6064L340.127 17H338.862V9.60352H340.127V15.0039L343.538 9.60352ZM352.906 9.60352V17H351.635V14.1221H349.728L347.985 17H346.617L348.477 13.9307C348.003 13.7575 347.638 13.4909 347.383 13.1309C347.132 12.7663 347.007 12.3424 347.007 11.8594C347.007 11.1849 347.26 10.6426 347.766 10.2324C348.272 9.81771 348.948 9.60807 349.796 9.60352H352.906ZM348.279 11.873C348.279 12.2331 348.402 12.5247 348.648 12.748C348.894 12.9668 349.22 13.0785 349.625 13.083H351.635V10.6289H349.817C349.347 10.6289 348.973 10.7451 348.695 10.9775C348.418 11.2054 348.279 11.5039 348.279 11.873ZM359.188 15.9678L359.625 15.4277C360.118 14.7897 360.398 13.8327 360.466 12.5566L360.582 9.60352H365.347V15.9678H366.297V19.1738H365.033V17H359.871V19.1738H358.607L358.614 15.9678H359.188ZM360.685 15.9678H364.082V10.7725H361.806L361.731 12.5361C361.653 14.0081 361.305 15.152 360.685 15.9678ZM367.784 13.2334C367.784 12.5088 367.925 11.8571 368.207 11.2783C368.495 10.6995 368.891 10.2529 369.397 9.93848C369.907 9.62402 370.488 9.4668 371.14 9.4668C372.147 9.4668 372.961 9.81543 373.581 10.5127C374.205 11.21 374.517 12.1374 374.517 13.2949V13.3838C374.517 14.1038 374.378 14.751 374.1 15.3252C373.827 15.8949 373.432 16.3392 372.917 16.6582C372.407 16.9772 371.819 17.1367 371.154 17.1367C370.151 17.1367 369.338 16.7881 368.713 16.0908C368.094 15.3936 367.784 14.4707 367.784 13.3223V13.2334ZM369.055 13.3838C369.055 14.2041 369.244 14.8626 369.622 15.3594C370.005 15.8561 370.516 16.1045 371.154 16.1045C371.796 16.1045 372.307 15.8538 372.685 15.3525C373.063 14.8467 373.252 14.1403 373.252 13.2334C373.252 12.4222 373.059 11.766 372.671 11.2646C372.289 10.7588 371.778 10.5059 371.14 10.5059C370.516 10.5059 370.012 10.7542 369.629 11.251C369.247 11.7477 369.055 12.4587 369.055 13.3838ZM381.301 10.6494H377.89V17H376.619V9.60352H381.301V10.6494ZM382.35 13.2334C382.35 12.5088 382.491 11.8571 382.774 11.2783C383.061 10.6995 383.458 10.2529 383.963 9.93848C384.474 9.62402 385.055 9.4668 385.707 9.4668C386.714 9.4668 387.527 9.81543 388.147 10.5127C388.771 11.21 389.084 12.1374 389.084 13.2949V13.3838C389.084 14.1038 388.945 14.751 388.667 15.3252C388.393 15.8949 387.999 16.3392 387.484 16.6582C386.974 16.9772 386.386 17.1367 385.72 17.1367C384.718 17.1367 383.904 16.7881 383.28 16.0908C382.66 15.3936 382.35 14.4707 382.35 13.3223V13.2334ZM383.622 13.3838C383.622 14.2041 383.811 14.8626 384.189 15.3594C384.572 15.8561 385.082 16.1045 385.72 16.1045C386.363 16.1045 386.873 15.8538 387.252 15.3525C387.63 14.8467 387.819 14.1403 387.819 13.2334C387.819 12.4222 387.625 11.766 387.238 11.2646C386.855 10.7588 386.345 10.5059 385.707 10.5059C385.082 10.5059 384.579 10.7542 384.196 11.251C383.813 11.7477 383.622 12.4587 383.622 13.3838ZM391.206 17V9.60352H394.091C395.075 9.60352 395.829 9.77669 396.353 10.123C396.882 10.4648 397.146 10.9684 397.146 11.6338C397.146 11.9756 397.044 12.2855 396.839 12.5635C396.633 12.8369 396.33 13.0465 395.929 13.1924C396.376 13.2972 396.734 13.5023 397.003 13.8076C397.276 14.113 397.413 14.4775 397.413 14.9014C397.413 15.5804 397.162 16.0999 396.661 16.46C396.164 16.82 395.46 17 394.549 17H391.206ZM392.47 13.7529V15.9814H394.562C395.091 15.9814 395.485 15.8835 395.745 15.6875C396.009 15.4915 396.141 15.2158 396.141 14.8604C396.141 14.1221 395.599 13.7529 394.514 13.7529H392.47ZM392.47 12.7412H394.104C395.289 12.7412 395.882 12.3949 395.882 11.7021C395.882 11.0094 395.321 10.6517 394.2 10.6289H392.47V12.7412ZM399.173 13.2334C399.173 12.5088 399.314 11.8571 399.596 11.2783C399.884 10.6995 400.28 10.2529 400.786 9.93848C401.296 9.62402 401.877 9.4668 402.529 9.4668C403.536 9.4668 404.35 9.81543 404.969 10.5127C405.594 11.21 405.906 12.1374 405.906 13.2949V13.3838C405.906 14.1038 405.767 14.751 405.489 15.3252C405.216 15.8949 404.821 16.3392 404.306 16.6582C403.796 16.9772 403.208 17.1367 402.543 17.1367C401.54 17.1367 400.727 16.7881 400.102 16.0908C399.483 15.3936 399.173 14.4707 399.173 13.3223V13.2334ZM400.444 13.3838C400.444 14.2041 400.633 14.8626 401.011 15.3594C401.394 15.8561 401.905 16.1045 402.543 16.1045C403.185 16.1045 403.696 15.8538 404.074 15.3525C404.452 14.8467 404.641 14.1403 404.641 13.2334C404.641 12.4222 404.448 11.766 404.06 11.2646C403.677 10.7588 403.167 10.5059 402.529 10.5059C401.905 10.5059 401.401 10.7542 401.018 11.251C400.635 11.7477 400.444 12.4587 400.444 13.3838ZM414.16 13.3838C414.16 14.5094 413.903 15.4163 413.388 16.1045C412.873 16.7926 412.175 17.1367 411.296 17.1367C410.398 17.1367 409.692 16.8519 409.177 16.2822V19.8438H407.912V9.60352H409.067L409.129 10.4238C409.644 9.78581 410.359 9.4668 411.275 9.4668C412.164 9.4668 412.866 9.80176 413.381 10.4717C413.9 11.1416 414.16 12.0736 414.16 13.2676V13.3838ZM412.895 13.2402C412.895 12.4062 412.718 11.7477 412.362 11.2646C412.007 10.7816 411.519 10.54 410.899 10.54C410.134 10.54 409.559 10.8796 409.177 11.5586V15.0928C409.555 15.7673 410.134 16.1045 410.913 16.1045C411.519 16.1045 412 15.8652 412.355 15.3867C412.715 14.9036 412.895 14.1882 412.895 13.2402ZM420.76 17C420.687 16.8542 420.628 16.5944 420.582 16.2207C419.994 16.8314 419.292 17.1367 418.476 17.1367C417.747 17.1367 417.148 16.9316 416.679 16.5215C416.214 16.1068 415.981 15.5827 415.981 14.9492C415.981 14.179 416.273 13.582 416.856 13.1582C417.444 12.7298 418.269 12.5156 419.331 12.5156H420.561V11.9346C420.561 11.4925 420.429 11.1416 420.165 10.8818C419.901 10.6175 419.511 10.4854 418.996 10.4854C418.545 10.4854 418.167 10.5993 417.861 10.8271C417.556 11.055 417.403 11.3307 417.403 11.6543H416.132C416.132 11.2852 416.262 10.9297 416.521 10.5879C416.786 10.2415 417.141 9.9681 417.588 9.76758C418.039 9.56706 418.533 9.4668 419.071 9.4668C419.923 9.4668 420.591 9.68099 421.074 10.1094C421.557 10.5332 421.808 11.1188 421.826 11.8662V15.2705C421.826 15.9495 421.913 16.4896 422.086 16.8906V17H420.76ZM418.661 16.0361C419.058 16.0361 419.434 15.9336 419.789 15.7285C420.144 15.5234 420.402 15.2568 420.561 14.9287V13.4111H419.57C418.021 13.4111 417.246 13.8646 417.246 14.7715C417.246 15.168 417.378 15.4779 417.642 15.7012C417.907 15.9245 418.246 16.0361 418.661 16.0361Z" fill="#2196F3"/>
<path d="M295.952 18.3672H422.851V19.0508H295.952V18.3672Z" fill="#2196F3"/>
</svg>
